<svg width="48" height="48" viewBox="0 0 48 48" fill="none" xmlns="http://www.w3.org/2000/svg">
<path d="M0 24C0 10.7452 10.7452 0 24 0C37.2548 0 48 10.7452 48 24C48 37.2548 37.2548 48 24 48C10.7452 48 0 37.2548 0 24Z" fill="black"/>
<path d="M9.89013 36.2038C9.35934 36.2038 8.7224 36.0711 7.9793 35.8057C7.2362 35.5934 6.4931 35.1688 5.75 34.5318C6.33386 33.7357 7.18312 32.6741 8.29777 31.3471C9.35934 29.9671 10.5005 28.4544 11.7213 26.8089C12.9421 25.1635 14.0833 23.518 15.1449 21.8726C14.2956 22.7219 13.3668 23.6242 12.3583 24.5796C11.3498 25.535 10.3413 26.4108 9.3328 27.207C9.12049 27.4193 8.88164 27.5255 8.61624 27.5255C8.40393 27.5255 8.29777 27.4193 8.29777 27.207C8.29777 26.9416 8.51008 26.6231 8.93471 26.2516C10.4209 24.9246 12.0663 23.4119 13.871 21.7134C15.7288 19.9618 17.0823 18.1837 17.9315 16.379C18.1969 15.742 18.3296 15.1582 18.3296 14.6274C18.3296 13.9374 18.1969 13.5127 17.9315 13.3535C17.7192 13.1943 17.6131 12.982 17.6131 12.7166C17.6131 12.2389 17.8519 12 18.3296 12C18.595 12 18.8073 12.0531 18.9666 12.1592C19.5504 12.4246 20.1077 12.9289 20.6385 13.672C21.1693 14.4151 21.4347 15.5297 21.4347 17.0159C21.4347 17.8652 21.3286 18.8471 21.1162 19.9618C20.9039 21.0234 20.5324 22.2442 20.0016 23.6242C20.7978 22.5626 21.5939 21.5276 22.3901 20.5191C23.2394 19.5106 24.009 18.6083 24.699 17.8121C26.1322 16.1667 27.5653 14.9989 28.9984 14.3089C30.4846 13.5658 31.8116 13.1943 32.9793 13.1943C34.3593 13.1943 35.474 13.5924 36.3232 14.3885C37.1725 15.1847 37.5971 16.2197 37.5971 17.4936C37.5971 18.5021 37.3317 19.5372 36.801 20.5987C36.6417 21.0234 36.2702 21.6868 35.6863 22.5892C35.1024 23.4384 34.4655 24.3673 33.7755 25.3758C33.0855 26.3843 32.4485 27.2866 31.8647 28.0828C31.1746 28.9321 30.6969 29.6752 30.4315 30.3121C30.1661 30.896 30.0334 31.3737 30.0334 31.7452C30.0334 32.276 30.3254 32.5414 30.9092 32.5414C31.6523 32.5414 32.6874 32.1433 34.0143 31.3471C34.8105 30.8694 35.7128 30.2325 36.7213 29.4363C37.7829 28.587 38.8179 27.7378 39.8264 26.8885C40.888 25.9862 41.7373 25.2431 42.3742 24.6592C42.5865 24.4469 42.7723 24.3408 42.9315 24.3408C43.1438 24.3408 43.25 24.4735 43.25 24.7389C43.25 25.0573 43.1173 25.3493 42.8519 25.6147C41.2596 27.1009 39.4018 28.7197 37.2787 30.4713C35.2086 32.2229 33.1651 33.5764 31.1481 34.5318C29.5027 35.328 27.9899 35.7261 26.6099 35.7261C25.4421 35.7261 24.5133 35.4342 23.8232 34.8503C23.1332 34.2134 22.7882 33.311 22.7882 32.1433C22.7882 31.2941 23.0005 30.2856 23.4252 29.1178C23.9559 27.6847 24.699 26.2516 25.6545 24.8185C26.663 23.3853 27.698 22.0318 28.7596 20.758C29.8742 19.431 30.8296 18.3163 31.6258 17.414C32.3158 16.6709 32.6608 16.034 32.6608 15.5032C32.6608 15.0255 32.3424 14.7866 31.7054 14.7866C31.0685 14.7866 30.1131 15.1582 28.8392 15.9013C27.6184 16.5913 26.2383 17.7325 24.699 19.3248C22.5228 21.6072 20.612 24.0754 18.9666 26.7293C17.3211 29.3832 15.4368 31.8779 13.3137 34.2134C12.146 35.5403 11.0048 36.2038 9.89013 36.2038Z" fill="#FAE575"/>
</svg>
