<svg width="576" height="512" viewBox="0 0 576 512" fill="none" xmlns="http://www.w3.org/2000/svg">
<path opacity="0.4" d="M0 96V416C0 451.3 28.7 480 64 480H512C547.3 480 576 451.3 576 416V96C576 60.7 547.3 32 512 32H64C28.7 32 0 60.7 0 96ZM64 368C64 323.8 99.8 288 144 288H208C252.2 288 288 323.8 288 368C288 376.8 280.8 384 272 384H80C71.2 384 64 376.8 64 368ZM240 192C240 208.974 233.257 225.253 221.255 237.255C209.253 249.257 192.974 256 176 256C159.026 256 142.747 249.257 130.745 237.255C118.743 225.253 112 208.974 112 192C112 175.026 118.743 158.747 130.745 146.745C142.747 134.743 159.026 128 176 128C192.974 128 209.253 134.743 221.255 146.745C233.257 158.747 240 175.026 240 192ZM352 176C352 167.2 359.2 160 368 160H496C504.8 160 512 167.2 512 176C512 184.8 504.8 192 496 192H368C359.2 192 352 184.8 352 176ZM352 240C352 231.2 359.2 224 368 224H496C504.8 224 512 231.2 512 240C512 248.8 504.8 256 496 256H368C359.2 256 352 248.8 352 240ZM352 304C352 295.2 359.2 288 368 288H496C504.8 288 512 295.2 512 304C512 312.8 504.8 320 496 320H368C359.2 320 352 312.8 352 304Z" fill="url(#paint0_linear_1_62)"/>
<path d="M176 256C192.974 256 209.253 249.257 221.255 237.255C233.257 225.253 240 208.974 240 192C240 175.026 233.257 158.747 221.255 146.745C209.253 134.743 192.974 128 176 128C159.026 128 142.747 134.743 130.745 146.745C118.743 158.747 112 175.026 112 192C112 208.974 118.743 225.253 130.745 237.255C142.747 249.257 159.026 256 176 256ZM144 288C99.8 288 64 323.8 64 368C64 376.8 71.2 384 80 384H272C280.8 384 288 376.8 288 368C288 323.8 252.2 288 208 288H144Z" fill="url(#paint1_linear_1_62)"/>
<defs>
<linearGradient id="paint0_linear_1_62" x1="288" y1="32" x2="288" y2="480" gradientUnits="userSpaceOnUse">
<stop stop-color="#F1E8A4"/>
<stop offset="1" stop-color="#B18A52"/>
</linearGradient>
<linearGradient id="paint1_linear_1_62" x1="176" y1="128" x2="176" y2="384" gradientUnits="userSpaceOnUse">
<stop stop-color="#F1E8A4"/>
<stop offset="1" stop-color="#B18A52"/>
</linearGradient>
</defs>
</svg>
