<svg width="40" height="40" viewBox="0 0 40 40" fill="none" xmlns="http://www.w3.org/2000/svg">
<path opacity="0.4" fill-rule="evenodd" clip-rule="evenodd" d="M15.875 28.084H8.70833C8.21707 28.084 7.80527 27.7946 7.60677 27.38C7.52917 27.218 7.69528 27.084 7.875 27.084H15.0417C15.7317 27.084 16.2917 26.524 16.2917 25.834C16.2917 25.7723 16.265 25.719 16.2567 25.6606C16.7568 25.824 17.1251 26.279 17.1251 26.834C17.1251 27.524 16.565 28.084 15.875 28.084ZM28.8751 5.6673H14.2083C9.375 5.6673 5.70833 9.6673 5.70833 14.834V19.584H3.875C3.185 19.584 2.625 20.144 2.625 20.834C2.625 21.524 3.185 22.084 3.875 22.084H9.70833C10.3983 22.084 10.9583 21.524 10.9583 20.834C10.9583 20.7723 10.9317 20.719 10.9233 20.6606C11.4233 20.824 11.7917 21.279 11.7917 21.834C11.7917 22.524 11.2317 23.084 10.5417 23.084H6.04167C5.85757 23.084 5.70833 23.2331 5.70833 23.4173V25.1673C5.70833 26.7473 6.07167 28.259 6.70667 29.584H4.375C3.685 29.584 3.125 30.144 3.125 30.834C3.125 31.524 3.685 32.084 4.375 32.084H9.70833C10.3983 32.084 10.9583 31.524 10.9583 30.834C10.9583 30.7723 10.9317 30.719 10.9233 30.6606C11.4233 30.824 11.7917 31.279 11.7917 31.834C11.7917 32.524 11.2317 33.084 10.5417 33.084C10.3132 33.084 10.2354 33.3688 10.4397 33.4711C11.5552 34.0295 12.8198 34.334 14.2083 34.334H28.8751C31.0418 34.334 33.0418 33.5006 34.7084 32.0006C36.3751 30.334 37.3751 27.834 37.3751 25.1673V14.834C37.2084 9.50063 33.7084 5.6673 28.8751 5.6673Z" fill="url(#paint0_linear_1411_7695)"/>
<path fill-rule="evenodd" clip-rule="evenodd" d="M31.0416 16.1673L24.3749 21.5007C23.5416 22.1673 22.5416 22.5007 21.3749 22.5007C20.3749 22.5007 19.3749 22.1673 18.3749 21.5007L11.7083 16.0006C11.2083 15.5006 11.0416 14.834 11.5416 14.1673C12.0416 13.5006 12.7083 13.5006 13.375 14.0006L20.0416 19.334C20.8749 20.0007 22.0416 20.0007 22.7082 19.334L29.3749 14.0006C29.8749 13.5006 30.7082 13.6673 31.2082 14.1673C31.7082 15.0006 31.5416 15.834 31.0416 16.1673Z" fill="url(#paint1_linear_1411_7695)"/>
<defs>
<linearGradient id="paint0_linear_1411_7695" x1="1.25461" y1="21.4222" x2="38.0517" y2="19.3784" gradientUnits="userSpaceOnUse">
<stop stop-color="#B18A52"/>
<stop offset="1" stop-color="#F1E8A4"/>
</linearGradient>
<linearGradient id="paint1_linear_1411_7695" x1="10.4404" y1="18.5117" x2="31.7368" y2="16.2782" gradientUnits="userSpaceOnUse">
<stop stop-color="#B18A52"/>
<stop offset="1" stop-color="#F1E8A4"/>
</linearGradient>
</defs>
</svg>
