<svg width="40" height="40" viewBox="0 0 40 40" fill="none" xmlns="http://www.w3.org/2000/svg">
<path d="M18.7502 33.0715V28.6215H21.2502V33.0715H26.5752C27.2652 33.0715 27.8252 33.6315 27.8252 34.3215C27.8252 35.0115 27.2652 35.5715 26.5752 35.5715H13.4251C12.7334 35.5715 12.1751 35.0115 12.1751 34.3215C12.1751 33.6315 12.7334 33.0715 13.4251 33.0715H18.7502Z" fill="black"/>
<path d="M18.7502 33.0715V28.6215H21.2502V33.0715H26.5752C27.2652 33.0715 27.8252 33.6315 27.8252 34.3215C27.8252 35.0115 27.2652 35.5715 26.5752 35.5715H13.4251C12.7334 35.5715 12.1751 35.0115 12.1751 34.3215C12.1751 33.6315 12.7334 33.0715 13.4251 33.0715H18.7502Z" fill="url(#paint0_linear_1411_7690)"/>
<g opacity="0.4">
<path fill-rule="evenodd" clip-rule="evenodd" d="M29.99 4.4303H10.0117C6.78835 4.4303 4.16669 7.05196 4.16669 10.2736V22.7753C4.16669 25.9986 6.78835 28.622 10.0117 28.622H18.75H21.25H29.99C33.2134 28.622 35.8334 25.9986 35.8334 22.7753V10.2736C35.8334 7.05196 33.2134 4.4303 29.99 4.4303ZM25.1075 17.4882C25.3218 17.2146 25.4289 16.873 25.4289 16.5327C25.4289 16.1531 25.3084 15.7996 25.0808 15.5117C25.0606 15.4924 25.0195 15.4487 24.9661 15.3918C24.8778 15.2977 24.7557 15.1677 24.6389 15.0535C23.541 13.9016 20.6756 12.0167 19.176 11.4407C18.9483 11.3491 18.3726 11.1541 18.0646 11.1397C17.7701 11.1397 17.4889 11.2064 17.2211 11.336C16.8863 11.5193 16.6185 11.8086 16.4713 12.1476C16.3775 12.3832 16.2302 13.0901 16.2302 13.1031C16.083 13.8754 16.0026 15.1334 16.0026 16.5196C16.0026 17.8416 16.083 19.0459 16.2035 19.8326C16.2068 19.8355 16.2185 19.8926 16.2368 19.9813C16.2914 20.2472 16.4043 20.797 16.5248 21.0238C16.8194 21.5735 17.3951 21.9126 18.0111 21.9126H18.0646C18.4663 21.9008 19.3099 21.5591 19.3099 21.546C20.7291 20.9714 23.5276 19.1781 24.6523 17.9856L24.7326 17.9071C24.8799 17.7631 25.0674 17.5419 25.1075 17.4882Z" fill="black"/>
<path fill-rule="evenodd" clip-rule="evenodd" d="M29.99 4.4303H10.0117C6.78835 4.4303 4.16669 7.05196 4.16669 10.2736V22.7753C4.16669 25.9986 6.78835 28.622 10.0117 28.622H18.75H21.25H29.99C33.2134 28.622 35.8334 25.9986 35.8334 22.7753V10.2736C35.8334 7.05196 33.2134 4.4303 29.99 4.4303ZM25.1075 17.4882C25.3218 17.2146 25.4289 16.873 25.4289 16.5327C25.4289 16.1531 25.3084 15.7996 25.0808 15.5117C25.0606 15.4924 25.0195 15.4487 24.9661 15.3918C24.8778 15.2977 24.7557 15.1677 24.6389 15.0535C23.541 13.9016 20.6756 12.0167 19.176 11.4407C18.9483 11.3491 18.3726 11.1541 18.0646 11.1397C17.7701 11.1397 17.4889 11.2064 17.2211 11.336C16.8863 11.5193 16.6185 11.8086 16.4713 12.1476C16.3775 12.3832 16.2302 13.0901 16.2302 13.1031C16.083 13.8754 16.0026 15.1334 16.0026 16.5196C16.0026 17.8416 16.083 19.0459 16.2035 19.8326C16.2068 19.8355 16.2185 19.8926 16.2368 19.9813C16.2914 20.2472 16.4043 20.797 16.5248 21.0238C16.8194 21.5735 17.3951 21.9126 18.0111 21.9126H18.0646C18.4663 21.9008 19.3099 21.5591 19.3099 21.546C20.7291 20.9714 23.5276 19.1781 24.6523 17.9856L24.7326 17.9071C24.8799 17.7631 25.0674 17.5419 25.1075 17.4882Z" fill="url(#paint1_linear_1411_7690)"/>
</g>
<defs>
<linearGradient id="paint0_linear_1411_7690" x1="11.5579" y1="32.4411" x2="28.0059" y2="30.744" gradientUnits="userSpaceOnUse">
<stop stop-color="#B18A52"/>
<stop offset="1" stop-color="#F1E8A4"/>
</linearGradient>
<linearGradient id="paint1_linear_1411_7690" x1="2.91789" y1="17.7258" x2="36.4328" y2="15.7156" gradientUnits="userSpaceOnUse">
<stop stop-color="#B18A52"/>
<stop offset="1" stop-color="#F1E8A4"/>
</linearGradient>
</defs>
</svg>
