<svg width="576" height="512" viewBox="0 0 576 512" fill="none" xmlns="http://www.w3.org/2000/svg">
<path opacity="0.4" d="M96 96C96 60.7 124.7 32 160 32H512C547.3 32 576 60.7 576 96V320C576 355.3 547.3 384 512 384H160C124.7 384 96 355.3 96 320V96ZM178.4 306.4C182.4 314.7 190.8 320 200 320H280H328H472C480.9 320 489 315.1 493.2 307.3C497.4 299.5 496.9 290 492 282.7L396 138.7C391.5 132 384 128 376 128C368 128 360.5 132 356 138.7L300 222.7L282.7 201C278.1 195.3 271.3 192 264 192C256.7 192 249.8 195.3 245.3 201L181.3 281C175.5 288.2 174.4 298.1 178.4 306.4ZM192 128C192 136.487 195.371 144.626 201.373 150.627C207.374 156.629 215.513 160 224 160C232.487 160 240.626 156.629 246.627 150.627C252.629 144.626 256 136.487 256 128C256 119.513 252.629 111.374 246.627 105.373C240.626 99.3714 232.487 96 224 96C215.513 96 207.374 99.3714 201.373 105.373C195.371 111.374 192 119.513 192 128Z" fill="url(#paint0_linear_1_68)"/>
<path d="M48 120C48 106.7 37.3 96 24 96C10.7 96 0 106.7 0 120V344C0 419.1 60.9 480 136 480H456C469.3 480 480 469.3 480 456C480 442.7 469.3 432 456 432H136C87.4 432 48 392.6 48 344V120ZM396 138.7C391.5 132 384 128 376 128C368 128 360.5 132 356 138.7L300 222.7L282.7 201C278.1 195.3 271.3 192 264 192C256.7 192 249.8 195.3 245.3 201L181.3 281C175.5 288.2 174.4 298.1 178.4 306.4C182.4 314.7 190.8 320 200 320H280H328H472C480.9 320 489 315.1 493.2 307.3C497.4 299.5 496.9 290 492 282.7L396 138.7Z" fill="url(#paint1_linear_1_68)"/>
<defs>
<linearGradient id="paint0_linear_1_68" x1="336" y1="32" x2="336" y2="384" gradientUnits="userSpaceOnUse">
<stop stop-color="#F1E8A4"/>
<stop offset="1" stop-color="#B18A52"/>
</linearGradient>
<linearGradient id="paint1_linear_1_68" x1="248.021" y1="96" x2="248.021" y2="480" gradientUnits="userSpaceOnUse">
<stop stop-color="#F1E8A4"/>
<stop offset="1" stop-color="#B18A52"/>
</linearGradient>
</defs>
</svg>
