<svg width="40" height="40" viewBox="0 0 40 40" fill="none" xmlns="http://www.w3.org/2000/svg">
<path opacity="0.4" fill-rule="evenodd" clip-rule="evenodd" d="M20.3341 3.83466C11.3341 3.83466 4.00073 11.168 4.00073 20.168C4.00073 23.168 4.6674 25.668 5.83407 27.8347C6.1674 28.5014 7.00073 28.668 7.50073 28.3347C8.1674 28.0014 8.33407 27.168 8.00073 26.668C7.00073 25.0014 6.50073 22.8347 6.50073 20.3347C6.50073 12.8347 12.6674 6.66799 20.1674 6.66799C27.6674 6.66799 33.8341 12.8347 33.8341 20.3347C33.8341 22.5014 33.3341 24.5014 32.3341 26.8347C32.0007 27.5014 32.3341 28.168 33.0007 28.5014C33.1674 28.5014 33.3341 28.668 33.5007 28.668C34.0007 28.668 34.5007 28.3347 34.6674 28.0014C35.8341 25.3347 36.5007 23.0014 36.5007 20.5014C36.5007 11.168 29.3341 3.83466 20.3341 3.83466Z" fill="url(#paint0_radial_1416_7716)"/>
<path fill-rule="evenodd" clip-rule="evenodd" d="M26.4985 17.502C26.4985 14.002 23.6652 11.1686 20.1652 11.1686C16.6651 11.1686 13.8318 14.002 13.8318 17.502C13.8318 21.002 16.6651 23.8354 20.1652 23.8354C23.6652 23.8354 26.4985 21.002 26.4985 17.502Z" fill="url(#paint1_radial_1416_7716)"/>
<path fill-rule="evenodd" clip-rule="evenodd" d="M20.3336 26.3357C14.0002 26.3357 11.3336 29.5024 11.0002 32.5024C11.0002 32.8357 11.1669 33.169 11.3336 33.3357C13.8336 35.169 17.0002 36.169 20.3336 36.169C23.5002 36.169 26.5002 35.169 29.3336 33.3357C29.6669 33.169 29.6669 32.8357 29.6669 32.5024C29.5002 31.0024 28.3336 26.169 20.3336 26.3357Z" fill="url(#paint2_radial_1416_7716)"/>
<defs>
<radialGradient id="paint0_radial_1416_7716" cx="0" cy="0" r="1" gradientUnits="userSpaceOnUse" gradientTransform="translate(20.2507 12.5314) rotate(72.4438) scale(22.5287 39.3264)">
<stop stop-color="#F1E8A4"/>
<stop offset="1" stop-color="#B18A52"/>
</radialGradient>
<radialGradient id="paint1_radial_1416_7716" cx="0" cy="0" r="1" gradientUnits="userSpaceOnUse" gradientTransform="translate(20.1651 15.6046) rotate(76.4097) scale(11.2715 15.626)">
<stop stop-color="#F1E8A4"/>
<stop offset="1" stop-color="#B18A52"/>
</radialGradient>
<radialGradient id="paint2_radial_1416_7716" cx="0" cy="0" r="1" gradientUnits="userSpaceOnUse" gradientTransform="translate(20.3336 29.7766) rotate(65.3586) scale(9.36136 21.5335)">
<stop stop-color="#F1E8A4"/>
<stop offset="1" stop-color="#B18A52"/>
</radialGradient>
</defs>
</svg>
