<svg width="31" height="50" viewBox="0 0 31 50" fill="none" xmlns="http://www.w3.org/2000/svg">
<path d="M15.3413 0.0138741C14.1135 0.205569 12.9086 0.967783 12.2149 1.99015C11.6443 2.83452 11.3796 3.82038 11.3842 5.09378C11.3887 6.48129 11.7219 7.96007 12.4522 9.7903C12.9269 10.9815 13.8443 12.8392 14.4604 13.8478C14.5563 14.003 14.6339 14.1628 14.6339 14.1993C14.6339 14.3043 13.2646 15.6552 12.6256 16.1847C11.1879 17.3759 10.4394 17.8597 8.95605 18.5581C8.63199 18.7087 8.3764 18.841 8.38553 18.8547C8.42204 18.8867 9.11579 18.695 9.54026 18.5261C10.129 18.2979 11.1377 17.8095 11.9273 17.3668C12.7534 16.9104 13.6526 16.2349 14.716 15.2764C14.9305 15.0847 15.1085 14.9569 15.1314 14.9798C15.1542 15.0026 15.4235 15.3997 15.7338 15.8652C16.633 17.2253 17.5184 18.4303 19.4034 20.8858C22.0963 24.391 23.3286 26.2304 24.351 28.266C25.1862 29.9365 25.8115 31.7211 26.0169 33.0264C26.2679 34.6148 26.2268 36.5773 25.9028 38.2661C25.419 40.8266 24.2871 43.095 22.6987 44.7016C21.0146 46.4131 19.0885 47.3533 16.3454 47.8143C15.2135 48.006 14.4285 48.0608 13.2281 48.0288C11.7493 47.9923 10.6357 47.8052 9.36226 47.3807C6.44576 46.404 3.97655 44.2406 2.57079 41.4336C1.06462 38.4213 0.918565 34.2588 2.21935 31.4427C2.97244 29.8133 4.64748 28.3984 6.5553 27.7822C8.48138 27.1615 10.5809 27.3851 12.0049 28.371C13.6389 29.5029 14.6156 31.6983 14.2915 33.5285C14.1957 34.0762 14.109 34.35 13.9721 34.5326C13.9036 34.6193 13.8306 34.7289 13.8077 34.7745C13.7667 34.8475 13.7712 34.8521 13.8488 34.811C14.1501 34.6513 14.5608 33.9256 14.6978 33.3094C14.8073 32.8256 14.8392 32.0771 14.7754 31.5248C14.6247 30.256 14.0314 29.0921 13.0592 28.1473C11.8908 27.0154 10.5079 26.5225 8.54071 26.5271C6.44576 26.5362 4.63379 27.2026 3.12762 28.5216C1.65339 29.8087 0.56256 31.9128 0.170042 34.2131C-0.277245 36.8375 0.15635 39.5623 1.48908 42.4742C2.16914 43.9622 2.90397 45.0439 3.9446 46.0936C5.69724 47.8691 8.02496 49.0786 10.7908 49.6582C12.5846 50.0371 14.8986 50.1055 16.7334 49.8408C21.8361 49.1014 26.3957 45.7787 28.5956 41.1917C30.4122 37.408 30.5719 33.0493 29.0703 28.3482C28.5682 26.7872 27.628 24.8794 26.2953 22.7343C24.7663 20.265 22.5572 17.2481 20.1109 14.2906C19.6544 13.7337 18.769 12.4101 18.2852 11.5521L18.1848 11.3695L18.518 10.8218C19.376 9.40691 19.8781 8.00572 20.0241 6.59996C20.1109 5.77841 20.1017 4.06228 20.0059 3.58305C19.8598 2.84365 19.5997 2.21836 19.1935 1.62046C18.8101 1.04994 18.4039 0.698498 17.7603 0.379007C17.2446 0.11885 16.8018 0.0184383 16.0944 0.00474581C15.7566 -0.0043825 15.4189 0.000181654 15.3413 0.0138741ZM17.669 2.83452C18.0433 3.0536 18.3263 3.50546 18.5317 4.22659C18.7416 4.97511 18.7918 5.75102 18.6731 6.59539C18.5271 7.63602 17.9703 9.53927 17.6736 10.0185L17.523 10.2604L17.3176 9.88159C16.7881 8.90029 16.6284 8.58993 16.3911 8.06049C15.7566 6.66842 15.6608 6.25308 15.6608 4.91122C15.6608 3.99382 15.6654 3.91167 15.7658 3.67433C15.9255 3.28181 16.0944 3.07642 16.4002 2.91211C16.9022 2.64739 17.3085 2.62001 17.669 2.83452Z" fill="white"/>
</svg>
