<svg width="448" height="512" viewBox="0 0 448 512" fill="none" xmlns="http://www.w3.org/2000/svg">
<g clip-path="url(#clip0_1_71)">
<path opacity="0.4" d="M352 128C352 161.948 338.514 194.505 314.51 218.51C290.505 242.514 257.948 256 224 256C190.052 256 157.495 242.514 133.49 218.51C109.486 194.505 96 161.948 96 128C96 94.0523 109.486 61.495 133.49 37.4903C157.495 13.4857 190.052 0 224 0C257.948 0 290.505 13.4857 314.51 37.4903C338.514 61.495 352 94.0523 352 128Z" fill="url(#paint0_linear_1_71)"/>
<path d="M190.5 328.2L209.1 359.2L175.8 483.1L139.8 336.2C137.8 328.1 130 322.8 121.9 324.9C51.9 342.4 0 405.8 0 481.3C0 498.3 13.8 512 30.7 512H162.4C164.5 512 166.4 511.6 168.2 510.9L168 512H280L279.7 510.9C281.5 511.6 283.5 512 285.5 512H417.2C434.2 512 447.9 498.2 447.9 481.3C447.9 405.8 396 342.4 326 324.9C317.9 322.9 310.1 328.2 308.1 336.2L272.1 483.1L238.9 359.2L257.5 328.2C263.9 317.5 256.2 304 243.8 304H224H204.3C191.9 304 184.2 317.6 190.6 328.2H190.5Z" fill="url(#paint1_linear_1_71)"/>
</g>
<defs>
<linearGradient id="paint0_linear_1_71" x1="224" y1="0" x2="224" y2="256" gradientUnits="userSpaceOnUse">
<stop stop-color="#F1E8A4"/>
<stop offset="1" stop-color="#B18A52"/>
</linearGradient>
<linearGradient id="paint1_linear_1_71" x1="223.95" y1="304" x2="223.95" y2="512" gradientUnits="userSpaceOnUse">
<stop stop-color="#F1E8A4"/>
<stop offset="1" stop-color="#B18A52"/>
</linearGradient>
<clipPath id="clip0_1_71">
<rect width="448" height="512" fill="white"/>
</clipPath>
</defs>
</svg>
