<svg width="48" height="48" viewBox="0 0 48 48" fill="none" xmlns="http://www.w3.org/2000/svg">
<g clip-path="url(#clip0_1_2)">
<path d="M21.6408 26.7808H16.9588L19.1932 19.5044L21.6408 26.7808Z" fill="#6FC4FF"/>
<path fill-rule="evenodd" clip-rule="evenodd" d="M24 0C10.745 0 0 10.745 0 24C0 37.255 10.745 48 24 48C37.255 48 48 37.255 48 24C48 10.745 37.255 0 24 0ZM23.7455 12.0081L32.5579 37.144H39.8052C40.8344 37.144 41.4 36.5756 41.4 35.5472V32.0312C41.4 31.0016 40.8344 30.4348 39.8052 30.4348H30.4048V12.478C30.4048 11.4484 29.8364 10.88 28.8084 10.88H25.2964C24.4361 10.88 23.8989 11.2769 23.7455 12.0081ZM31.7879 37.144H24.6552L23.13 32.6008H15.3276L13.766 37.144H6.60001L15.8236 10.88H22.6L31.7879 37.144Z" fill="#6FC4FF"/>
</g>
<defs>
<clipPath id="clip0_1_2">
<rect width="48" height="48" fill="white"/>
</clipPath>
</defs>
</svg>
