<svg width="48" height="48" viewBox="0 0 48 48" fill="none" xmlns="http://www.w3.org/2000/svg">
<path fill-rule="evenodd" clip-rule="evenodd" d="M0 24C0 10.745 10.745 0 24 0C37.255 0 48 10.745 48 24C48 37.255 37.255 48 24 48C10.745 48 0 37.255 0 24ZM35.6875 12.9375H12.5C10.75 12.9375 9.0625 14.5625 9.0625 16.3125V31.625C9.0625 33.375 10.75 35.0625 12.5 35.0625H35.6875C37.4375 35.0625 39.0625 33.375 39.0625 31.625V16.3125C39.0625 14.5625 37.4375 12.9375 35.6875 12.9375ZM33.6875 31.375C35.0625 31.375 35.375 31.0625 35.375 29.6875V18.1875L27.3125 24.5C26.25 25.375 24.875 25.625 24.0625 25.625C23.25 25.625 21.875 25.375 20.8125 24.5L12.75 18.1875V29.6875C12.75 31.0625 13.125 31.375 14.5 31.375H33.6875ZM16.0625 16.625H32.0625L25.9375 21.1875C24.6875 22.1875 23.4375 22.1875 22.1875 21.1875L16.0625 16.625Z" fill="url(#paint0_linear_12_3)"/>
<defs>
<linearGradient id="paint0_linear_12_3" x1="17.3365" y1="47.9998" x2="36.0389" y2="4.17345" gradientUnits="userSpaceOnUse">
<stop offset="0.116637" stop-color="#B18A52"/>
<stop offset="1" stop-color="#FAE575"/>
</linearGradient>
</defs>
</svg>
