<svg viewBox="0 0 530 121" fill="none" xmlns="http://www.w3.org/2000/svg">
<path d="M86.0205 116.155C81.8509 116.155 77.9791 115.516 74.4051 114.24C70.9162 113.049 67.9804 111.091 65.5978 108.368C63.3002 105.645 61.811 102.071 61.1303 97.6464V97.2635C61.1303 96.838 61.2579 96.6253 61.5132 96.6253C61.9387 96.6253 62.2365 96.9231 62.4067 97.5188C63.3427 102.369 65.6828 106.326 69.427 109.389C73.1712 112.453 77.4685 113.985 82.3189 113.985C85.7227 113.985 88.9988 113.261 92.1474 111.815C95.2959 110.453 98.2742 108.666 101.082 106.454C103.89 104.241 106.486 101.859 108.869 99.3057C111.336 96.838 113.591 94.5404 115.634 92.4131C120.399 87.1372 124.696 81.6486 128.525 75.9472C132.44 70.2458 135.503 65.0125 137.716 60.2472C134.822 63.2255 131.248 66.2464 126.994 69.3098C122.824 72.3732 118.229 75.309 113.208 78.1171C108.188 80.9252 102.912 83.393 97.3807 85.5204C91.9346 87.7328 86.4885 89.4347 81.0425 90.6261C78.3194 91.2217 75.6815 91.6472 73.1287 91.9025C70.5758 92.2429 68.1506 92.4131 65.853 92.4131C59.0454 92.4131 53.259 91.3068 48.4937 89.0944C43.7284 86.8819 40.0693 83.861 37.5164 80.0317C35.0487 76.2025 33.8148 71.8626 33.8148 67.0122C33.8148 62.2469 35.0487 57.1412 37.5164 51.6952C39.9842 46.2491 43.8135 40.7179 49.0042 35.1016C52.8335 30.932 57.1308 27.0602 61.8961 23.4862C66.6614 19.8271 71.5118 16.551 76.4474 13.6577C81.468 10.6794 86.3609 8.16911 91.1262 6.12683C95.9766 4.08455 100.402 2.59539 104.401 1.65935C106.613 1.14878 108.869 0.765852 111.166 0.51057C113.464 0.17019 115.676 0 117.803 0C121.463 0 124.781 0.468021 127.76 1.40406C130.823 2.34011 133.291 3.82927 135.163 5.87155C137.035 7.91382 137.971 10.5943 137.971 13.913C137.971 15.7851 137.631 17.6146 136.95 19.4016C136.354 21.1886 135.844 22.5501 135.418 23.4862C135.163 23.9968 134.908 24.252 134.652 24.252C134.482 24.252 134.354 24.0819 134.269 23.7415C134.184 23.4011 134.227 23.0607 134.397 22.7203C135.163 21.0184 135.546 19.5718 135.546 18.3805C135.546 16.2531 134.61 14.7214 132.738 13.7854C130.951 12.7642 128.483 12.2537 125.334 12.2537C121.76 12.2537 117.548 12.8068 112.698 13.913C107.847 15.0192 102.699 16.551 97.2531 18.5081C91.8921 20.4653 86.5311 22.7203 81.1701 25.2732C75.8091 27.826 70.746 30.6342 65.9807 33.6976C61.3005 36.6759 57.2585 39.7393 53.8547 42.8878C48.2384 48.0786 44.1113 52.9716 41.4733 57.5667C38.9205 62.0767 37.6441 66.1187 37.6441 69.6927C37.6441 75.0537 40.1544 79.2659 45.175 82.3293C50.1956 85.3076 56.9606 86.7968 65.4701 86.7968C67.6826 86.7968 69.9376 86.6692 72.2352 86.4139C74.6178 86.2437 77.0856 85.9458 79.6384 85.5204C87.0417 84.1588 94.5726 82.0315 102.231 79.1383C109.89 76.1599 117.038 72.5434 123.675 68.2887C130.312 64.0339 135.801 59.3962 140.141 54.3756C140.481 53.4396 140.779 52.5461 141.034 51.6952C141.29 50.7591 141.417 49.8656 141.417 49.0147C141.417 47.9084 140.907 47.3553 139.886 47.3553C138.524 47.3553 137.035 48.0361 135.418 49.3976C134.737 49.9932 134.099 50.2911 133.503 50.2911C133.078 50.2911 132.865 50.0783 132.865 49.6529C132.865 48.9721 133.291 48.2488 134.142 47.483C136.95 45.4407 139.673 44.4195 142.311 44.4195C144.523 44.4195 146.31 45.1854 147.672 46.7171C148.523 47.6531 148.948 49.0998 148.948 51.0569C148.948 53.5247 148.225 56.503 146.778 59.9919C145.417 63.4808 143.63 67.1824 141.417 71.0968C139.29 74.9261 136.95 78.6702 134.397 82.3293C131.929 85.9033 129.589 89.1369 127.377 92.0301C125.164 94.9234 123.377 97.0933 122.016 98.5399C117.335 103.475 111.847 107.645 105.55 111.049C99.3379 114.453 92.8281 116.155 86.0205 116.155Z" fill="white"/>
<path d="M168.491 85.5204C164.832 85.5204 162.365 84.8396 161.088 83.4781C159.812 82.0315 159.174 80.4572 159.174 78.7553C159.174 76.5429 160.024 74.2028 161.726 71.735C162.748 70.2884 163.896 68.6716 165.173 66.8846C166.449 65.0125 167.64 63.2681 168.747 61.6513C169.853 60.0345 170.619 58.8857 171.044 58.2049C171.64 57.354 171.98 56.8008 172.065 56.5456C172.236 56.2052 172.321 55.8648 172.321 55.5244C172.321 55.0139 171.98 54.5458 171.3 54.1204C170.704 53.6098 169.683 53.3545 168.236 53.3545C167.811 53.3545 167.428 53.397 167.087 53.4821C166.832 53.4821 166.534 53.4821 166.194 53.4821C165.513 53.4821 165.13 53.4396 165.045 53.3545L164.662 53.8651C162.28 57.0136 159.727 60.1195 157.004 63.183C154.281 66.1613 151.302 68.9269 148.069 71.4797C147.728 71.735 147.473 71.8626 147.303 71.8626C146.962 71.8626 146.792 71.6924 146.792 71.3521C146.792 70.6713 147.303 69.9055 148.324 69.0545C150.962 66.842 153.557 64.3743 156.11 61.6513C158.663 58.8431 160.961 55.9073 163.003 52.8439C162.237 52.3334 161.854 51.3122 161.854 49.7805C161.854 47.483 162.577 45.0152 164.024 42.3773C165.045 40.5903 166.151 39.2713 167.343 38.4203C168.619 37.4843 169.725 37.0163 170.661 37.0163C172.448 37.0163 173.342 38.08 173.342 40.2073C173.342 41.5689 172.831 43.2708 171.81 45.313C171.385 46.3342 170.534 47.6531 169.257 49.2699C168.066 50.8016 166.875 51.9079 165.683 52.5886C167.47 51.993 169.725 51.6101 172.448 51.4399C175.256 51.1846 177.597 51.0569 179.469 51.0569C180.575 51.0569 181.936 51.3973 183.553 52.0781C185.17 52.6737 185.978 53.78 185.978 55.3968C185.978 56.503 185.468 57.6943 184.447 58.9708C184.191 59.3111 183.511 60.1195 182.404 61.396C181.298 62.6724 180.064 64.2041 178.703 65.9911C177.426 67.7781 176.235 69.5651 175.129 71.3521C174.023 72.9689 173.129 74.458 172.448 75.8196C171.853 77.1811 171.555 78.3299 171.555 79.2659C171.555 80.6274 172.321 81.3082 173.852 81.3082C175.639 81.3082 178.022 80.4572 181 78.7553C183.979 77.0534 187.17 74.8835 190.574 72.2456C194.062 69.5225 197.254 66.7144 200.147 63.8212C200.487 63.4808 200.785 63.3106 201.04 63.3106C201.381 63.3106 201.551 63.5233 201.551 63.9488C201.551 64.4594 201.338 64.9274 200.913 65.3529C197.934 68.3312 194.616 71.3946 190.956 74.5431C187.383 77.6065 183.638 80.2019 179.724 82.3293C175.895 84.4567 172.151 85.5204 168.491 85.5204Z" fill="white"/>
<path d="M207.847 86.6692C204.103 86.6692 200.954 85.7757 198.402 83.9887C195.934 82.1166 194.7 79.4361 194.7 75.9472C194.7 72.203 195.593 68.7141 197.38 65.4805C199.167 62.2469 201.55 59.4388 204.528 57.0561C207.507 54.5884 210.74 52.6737 214.229 51.3122C217.803 49.9507 221.335 49.2699 224.824 49.2699C228.312 49.2699 230.908 49.9082 232.61 51.1846C234.312 52.3759 235.163 53.8651 235.163 55.6521C235.163 57.354 234.354 59.1835 232.737 61.1407C231.206 63.0128 228.951 64.6721 225.972 66.1187C224.1 66.9697 221.93 67.7355 219.463 68.4163C217.08 69.012 214.995 69.3098 213.208 69.3098C211.847 69.3098 211.166 69.0971 211.166 68.6716C211.166 68.3312 211.762 68.161 212.953 68.161C214.059 68.161 215.761 67.8632 218.059 67.2675C220.441 66.5868 222.739 65.6933 224.951 64.587C227.419 63.2255 229.163 61.864 230.185 60.5025C231.206 59.141 231.716 57.9071 231.716 56.8008C231.716 55.7797 231.291 54.9288 230.44 54.248C229.674 53.5672 228.568 53.2269 227.121 53.2269C225.76 53.2269 224.228 53.6098 222.526 54.3756C220.058 55.4819 217.505 57.3114 214.867 59.8643C212.315 62.332 210.187 65.0551 208.485 68.0334C206.783 71.0117 205.933 73.8624 205.933 76.5854C205.933 78.4575 206.443 80.0317 207.464 81.3082C208.57 82.5846 210.187 83.2228 212.315 83.2228C214.527 83.2228 217.08 82.542 219.973 81.1805C222.866 79.7339 225.802 77.9895 228.781 75.9472C231.759 73.8198 234.524 71.6925 237.077 69.5651C239.63 67.4377 241.672 65.6507 243.204 64.2041C243.715 63.6935 244.098 63.4382 244.353 63.4382C244.608 63.4382 244.736 63.651 244.736 64.0765C244.736 64.6721 244.481 65.1827 243.97 65.6082C240.736 68.5865 237.205 71.6924 233.376 74.9261C229.631 78.1597 225.589 80.9252 221.25 83.2228C216.995 85.4353 212.527 86.5841 207.847 86.6692Z" fill="white"/>
<path d="M251.226 86.6692C247.481 86.6692 244.333 85.7757 241.78 83.9887C239.312 82.1166 238.078 79.4361 238.078 75.9472C238.078 72.203 238.972 68.7141 240.759 65.4805C242.546 62.2469 244.929 59.4388 247.907 57.0561C250.885 54.5884 254.119 52.6737 257.608 51.3122C261.182 49.9507 264.713 49.2699 268.202 49.2699C271.691 49.2699 274.286 49.9082 275.988 51.1846C277.69 52.3759 278.541 53.8651 278.541 55.6521C278.541 57.354 277.733 59.1835 276.116 61.1407C274.584 63.0128 272.329 64.6721 269.351 66.1187C267.479 66.9697 265.309 67.7355 262.841 68.4163C260.458 69.012 258.374 69.3098 256.587 69.3098C255.225 69.3098 254.544 69.0971 254.544 68.6716C254.544 68.3312 255.14 68.161 256.331 68.161C257.438 68.161 259.139 67.8632 261.437 67.2675C263.82 66.5868 266.117 65.6933 268.33 64.587C270.797 63.2255 272.542 61.864 273.563 60.5025C274.584 59.141 275.095 57.9071 275.095 56.8008C275.095 55.7797 274.669 54.9288 273.818 54.248C273.052 53.5672 271.946 53.2269 270.5 53.2269C269.138 53.2269 267.606 53.6098 265.904 54.3756C263.437 55.4819 260.884 57.3114 258.246 59.8643C255.693 62.332 253.566 65.0551 251.864 68.0334C250.162 71.0117 249.311 73.8624 249.311 76.5854C249.311 78.4575 249.822 80.0317 250.843 81.3082C251.949 82.5846 253.566 83.2228 255.693 83.2228C257.906 83.2228 260.458 82.542 263.352 81.1805C266.245 79.7339 269.181 77.9895 272.159 75.9472C275.137 73.8198 277.903 71.6925 280.456 69.5651C283.009 67.4377 285.051 65.6507 286.583 64.2041C287.093 63.6935 287.476 63.4382 287.731 63.4382C287.987 63.4382 288.114 63.651 288.114 64.0765C288.114 64.6721 287.859 65.1827 287.348 65.6082C284.115 68.5865 280.583 71.6924 276.754 74.9261C273.01 78.1597 268.968 80.9252 264.628 83.2228C260.373 85.4353 255.906 86.5841 251.226 86.6692Z" fill="white"/>
<path d="M290.647 87.5626C287.924 87.5626 285.839 86.7542 284.393 85.1374C282.946 83.5206 282.223 81.2656 282.223 78.3724C282.223 75.6494 282.946 72.4583 284.393 68.7992L284.648 68.161L282.35 70.3309C282.01 70.6713 281.627 70.8415 281.202 70.8415C280.776 70.8415 280.563 70.6713 280.563 70.3309C280.563 69.9055 280.861 69.3949 281.457 68.7992C283.669 66.842 285.924 64.7998 288.222 62.6724C290.605 60.4599 292.604 58.3751 294.221 56.4179C293.625 56.6732 292.987 56.8008 292.307 56.8008C291.626 56.8008 291.115 56.6307 290.775 56.2903C290.179 55.8648 289.881 55.0989 289.881 53.9927C289.881 53.0567 290.307 52.0781 291.158 51.0569C292.094 50.0358 293.966 49.1423 296.774 48.3765C297.37 48.2063 297.965 48.0786 298.561 47.9935C299.242 47.9084 299.88 47.8233 300.476 47.7382C303.199 43.909 305.581 40.3775 307.624 37.1439C309.666 33.8252 311.283 31.6128 312.474 30.5065C312.985 29.9109 313.878 29.4003 315.154 28.9748C316.516 28.5493 317.92 28.209 319.367 27.9537C320.898 27.6984 322.09 27.5707 322.941 27.5707C325.749 27.5707 327.153 27.826 327.153 28.3366C327.153 28.677 326.515 29.4854 325.238 30.7618C323.111 32.8041 320.601 35.3569 317.707 38.4203C314.899 41.3987 312.006 44.6323 309.028 48.1212C311.495 48.4615 313.75 49.0998 315.793 50.0358C317.92 50.9718 319.452 52.1632 320.388 53.6098C320.728 54.0353 320.898 54.5458 320.898 55.1415C320.898 55.8223 320.686 56.1626 320.26 56.1626C319.92 56.1626 319.537 55.9499 319.111 55.5244C317.324 53.7374 314.346 52.8439 310.176 52.8439C309.325 52.8439 308.432 52.8865 307.496 52.9716C306.645 53.0567 305.752 53.1843 304.815 53.3545C301.922 57.0987 299.284 60.8428 296.902 64.587C294.519 68.3312 292.817 71.8201 291.796 75.0537C291.285 76.5854 291.03 77.9895 291.03 79.2659C291.03 80.5423 291.328 81.606 291.924 82.457C292.519 83.2228 293.413 83.6057 294.604 83.6057C295.37 83.6057 296.306 83.393 297.412 82.9675C299.029 82.3719 300.901 81.3933 303.028 80.0317C305.156 78.5851 307.283 76.9683 309.411 75.1813C311.623 73.3943 313.665 71.6499 315.537 69.948C317.495 68.2461 319.111 66.7995 320.388 65.6082C321.664 64.4168 322.388 63.7361 322.558 63.5659C322.813 63.3106 323.026 63.183 323.196 63.183C323.536 63.183 323.707 63.4382 323.707 63.9488C323.707 64.5445 323.451 65.0976 322.941 65.6082C322.09 66.4591 320.771 67.7355 318.984 69.4374C317.282 71.1393 315.282 73.054 312.985 75.1813C310.772 77.2236 308.389 79.1808 305.837 81.0529C303.284 82.925 300.688 84.4567 298.05 85.648C295.498 86.9244 293.03 87.5626 290.647 87.5626Z" fill="white"/>
<path d="M346.212 46.3342C345.021 46.3342 344.128 45.9512 343.532 45.1854C342.936 44.4195 342.638 43.6111 342.638 42.7602C342.638 41.0583 343.447 39.3989 345.064 37.7821C346.68 36.0802 348.382 35.2293 350.169 35.2293C351.361 35.2293 352.254 35.6122 352.85 36.3781C353.446 37.1439 353.743 37.9523 353.743 38.8033C353.743 40.5903 352.935 42.2922 351.318 43.909C349.786 45.5258 348.085 46.3342 346.212 46.3342ZM326.683 85.5204C323.194 85.5204 320.812 84.7971 319.535 83.3505C318.344 81.8187 317.748 80.1168 317.748 78.2448C317.748 76.713 318.004 75.2664 318.514 73.9049C319.025 72.4583 319.45 71.4372 319.791 70.8415C320.301 69.9906 320.982 69.012 321.833 67.9057C322.769 66.7995 323.79 65.6082 324.896 64.3317C323.194 65.7784 321.577 67.1824 320.046 68.5439C318.599 69.9055 317.408 70.9266 316.472 71.6074C316.217 71.8626 315.961 71.9903 315.706 71.9903C315.366 71.9903 315.195 71.7775 315.195 71.3521C315.195 70.6713 315.663 69.9906 316.599 69.3098C318.812 67.4377 320.939 65.3954 322.982 63.183C325.109 60.9705 327.109 58.9282 328.981 57.0561C330.853 55.0989 332.512 53.7374 333.959 52.9716C335.491 52.1206 336.724 51.5675 337.66 51.3122C338.596 51.0569 339.362 50.9293 339.958 50.9293C340.894 50.9293 341.575 51.0995 342 51.4399C342.426 51.6952 342.511 51.993 342.256 52.3334C340.809 53.78 339.362 55.6521 337.916 57.9496C336.554 60.1621 335.278 62.5022 334.086 64.97C332.895 67.4377 331.917 69.7778 331.151 71.9903C330.47 74.2028 330.13 76.0748 330.13 77.6065C330.13 79.7339 330.98 80.7976 332.682 80.7976C334.299 80.7976 336.384 80.0743 338.937 78.6277C341.575 77.096 344.298 75.1813 347.106 72.8838C349.999 70.5862 352.68 68.3312 355.147 66.1187C355.488 65.7784 355.786 65.6082 356.041 65.6082C356.466 65.6082 356.679 65.8209 356.679 66.2464C356.764 66.6719 356.679 66.9697 356.424 67.1399C353.616 69.7778 350.425 72.5434 346.851 75.4366C343.362 78.2448 339.83 80.6274 336.256 82.5846C332.767 84.5418 329.576 85.5204 326.683 85.5204Z" fill="white"/>
<path d="M352.262 86.0309C351.411 86.0309 350.389 85.8182 349.198 85.3927C348.007 85.0523 346.815 84.3716 345.624 83.3505C346.56 82.074 347.922 80.3721 349.709 78.2448C351.411 76.0323 353.24 73.6071 355.197 70.9691C357.154 68.3312 358.984 65.6933 360.686 63.0553C359.324 64.4168 357.835 65.8635 356.218 67.3952C354.602 68.9269 352.985 70.3309 351.368 71.6074C351.028 71.9477 350.645 72.1179 350.219 72.1179C349.879 72.1179 349.709 71.9477 349.709 71.6074C349.709 71.1819 350.049 70.6713 350.73 70.0757C353.112 67.9483 355.75 65.5231 358.644 62.8C361.622 59.9919 363.792 57.1412 365.153 54.248C365.579 53.2269 365.792 52.2908 365.792 51.4399C365.792 50.3336 365.579 49.6529 365.153 49.3976C364.813 49.1423 364.643 48.8019 364.643 48.3765C364.643 47.6106 365.026 47.2277 365.792 47.2277C366.217 47.2277 366.557 47.3128 366.813 47.483C367.749 47.9084 368.642 48.7168 369.493 49.9082C370.344 51.0995 370.77 52.8865 370.77 55.2691C370.77 56.6307 370.599 58.2049 370.259 59.9919C369.919 61.6938 369.323 63.651 368.472 65.8635C369.748 64.1616 371.025 62.5022 372.301 60.8854C373.663 59.2686 374.897 57.822 376.003 56.5456C378.301 53.9076 380.598 52.0355 382.896 50.9293C385.278 49.738 387.406 49.1423 389.278 49.1423C391.49 49.1423 393.277 49.7805 394.639 51.0569C396 52.3334 396.681 53.9927 396.681 56.035C396.681 57.6518 396.256 59.3111 395.405 61.013C395.149 61.6938 394.554 62.7575 393.618 64.2041C392.682 65.5656 391.66 67.0548 390.554 68.6716C389.448 70.2884 388.427 71.735 387.491 73.0114C386.385 74.3729 385.619 75.5643 385.193 76.5854C384.768 77.5215 384.555 78.2873 384.555 78.883C384.555 79.7339 385.023 80.1594 385.959 80.1594C387.15 80.1594 388.81 79.5212 390.937 78.2448C392.214 77.4789 393.66 76.4578 395.277 75.1813C396.979 73.8198 398.638 72.4583 400.255 71.0968C401.957 69.6502 403.318 68.4588 404.34 67.5228C404.68 67.1824 404.978 67.0122 405.233 67.0122C405.573 67.0122 405.744 67.225 405.744 67.6504C405.744 68.161 405.531 68.629 405.105 69.0545C402.553 71.4372 399.574 74.0326 396.17 76.8407C392.852 79.6488 389.576 81.8187 386.342 83.3505C383.704 84.6269 381.279 85.2651 379.066 85.2651C377.194 85.2651 375.705 84.7971 374.599 83.861C373.493 82.8399 372.94 81.3933 372.94 79.5212C372.94 78.1597 373.28 76.5429 373.961 74.6708C374.812 72.3732 376.003 70.0756 377.535 67.7781C379.151 65.4805 380.811 63.3106 382.513 61.2683C384.3 59.141 385.831 57.354 387.108 55.9073C388.214 54.716 388.767 53.6949 388.767 52.8439C388.767 52.0781 388.257 51.6952 387.236 51.6952C386.214 51.6952 384.683 52.2908 382.64 53.4821C380.683 54.5884 378.471 56.4179 376.003 58.9708C372.514 62.6298 369.451 66.5868 366.813 70.8415C364.175 75.0962 361.154 79.0957 357.75 82.8399C355.878 84.9673 354.049 86.0309 352.262 86.0309Z" fill="white"/>
<path d="M392.272 119.473C387.082 119.473 382.784 118.878 379.381 117.686C375.977 116.495 373.254 114.878 371.211 112.836C369.85 111.389 368.573 109.475 367.382 107.092C366.191 104.794 365.595 102.837 365.595 101.22C365.595 100.625 365.723 100.327 365.978 100.327C366.574 100.327 366.957 100.667 367.127 101.348C367.127 101.603 367.425 102.582 368.02 104.284C368.531 105.986 369.51 107.858 370.956 109.9C372.403 111.942 374.53 113.729 377.338 115.261C380.146 116.793 383.805 117.559 388.315 117.559C393.676 117.559 398.484 116.282 402.739 113.729C406.994 111.262 410.781 107.985 414.099 103.901C417.503 99.9014 420.609 95.519 423.417 90.7537C426.225 85.9884 428.906 81.3082 431.459 76.7131C434.011 72.1179 436.607 68.0759 439.245 64.587C438.139 65.7784 436.734 67.2675 435.033 69.0545C433.416 70.7564 431.671 72.5008 429.799 74.2878C427.927 76.0748 426.14 77.6916 424.438 79.1383C422.736 80.5849 421.332 81.6486 420.226 82.3293C418.354 83.4355 416.567 84.244 414.865 84.7545C413.248 85.2651 411.759 85.5204 410.398 85.5204C407.76 85.5204 405.717 84.712 404.271 83.0952C402.824 81.3933 402.101 79.2233 402.101 76.5854C402.101 74.1177 402.739 71.3946 404.015 68.4163C405.377 65.438 407.504 62.4171 410.398 59.3537C413.376 56.1201 417.078 53.5247 421.502 51.5675C425.927 49.5252 430.14 48.5041 434.139 48.5041C435.586 48.5041 436.99 48.6743 438.351 49.0147C439.713 49.2699 440.947 49.738 442.053 50.4187C443.585 51.3548 444.691 52.2483 445.372 53.0992C446.137 53.8651 446.691 54.8011 447.031 55.9073C447.542 55.9073 448.35 56.1626 449.456 56.6732C450.562 57.0987 451.584 57.6518 452.52 58.3326C453.456 58.9282 453.924 59.5664 453.924 60.2472C453.924 60.5876 453.583 60.9705 452.903 61.396C451.201 62.2469 449.286 64.2892 447.159 67.5228C445.031 70.6713 442.649 74.458 440.011 78.883C437.458 83.2228 434.565 87.7328 431.331 92.4131C428.182 97.1784 424.651 101.603 420.737 105.688C416.822 109.772 412.482 113.091 407.717 115.644C403.037 118.197 397.889 119.473 392.272 119.473ZM413.972 82.2017C415.674 82.2017 417.758 81.3507 420.226 79.6488C422.098 78.3724 424.14 76.7981 426.353 74.9261C428.565 72.9689 430.735 70.9266 432.863 68.7992C434.99 66.6719 436.82 64.7147 438.351 62.9277C441.159 59.6941 442.563 57.0561 442.563 55.0139C442.563 53.312 441.542 52.461 439.5 52.461C437.458 52.461 434.65 53.4396 431.076 55.3968C429.033 56.503 426.863 58.0773 424.566 60.1195C422.268 62.1618 420.098 64.3743 418.056 66.7569C416.099 69.1396 414.525 71.3521 413.333 73.3943C411.972 75.8621 411.291 77.8618 411.291 79.3935C411.291 81.2656 412.185 82.2017 413.972 82.2017Z" fill="white"/>
<path d="M463.012 86.7968C459.608 86.7968 456.63 86.1586 454.077 84.8822C451.439 83.5206 449.525 81.0529 448.333 77.4789C448.248 77.1385 448.376 76.9258 448.716 76.8407C448.972 76.7556 449.142 76.9258 449.227 77.3513C450.078 79.2234 451.184 80.5423 452.546 81.3082C453.907 82.074 455.396 82.457 457.013 82.457C459.736 82.457 462.119 81.6485 464.161 80.0317C466.288 78.4149 468.16 76.3727 469.777 73.9049C471.479 71.4372 472.968 68.9269 474.245 66.374C475.606 63.7361 476.883 61.4811 478.074 59.609C479.946 56.4605 482.159 53.6098 484.711 51.0569C487.349 48.5041 489.732 46.9298 491.859 46.3342C491.349 46.0789 490.711 45.9512 489.945 45.9512C487.817 45.9512 485.477 46.5895 482.924 47.8659C480.372 49.1423 477.776 50.8017 475.138 52.8439C472.585 54.8862 470.075 57.0561 467.607 59.3537C465.225 61.5662 463.012 63.651 460.97 65.6082C459.013 67.4803 457.438 68.9694 456.247 70.0757C455.566 70.6713 455.056 70.9691 454.715 70.9691C454.375 70.9691 454.205 70.799 454.205 70.4586C454.205 69.948 454.418 69.48 454.843 69.0545C457.396 66.842 460.034 64.3743 462.757 61.6513C465.48 58.8431 468.246 56.1626 471.054 53.6098C473.862 50.9718 476.712 48.8019 479.606 47.1C482.499 45.3981 485.435 44.5472 488.413 44.5472C488.753 44.5472 489.051 44.5472 489.306 44.5472C489.647 44.5472 489.987 44.5897 490.328 44.6748C491.264 44.7599 492.115 45.0152 492.881 45.4407C493.731 45.8661 493.987 46.164 493.646 46.3342C491.689 47.1851 490.157 48.887 489.051 51.4399C487.945 53.9927 486.924 56.971 485.988 60.3748C485.052 63.7786 483.903 67.225 482.541 70.7139C481.265 74.2027 479.393 77.3087 476.925 80.0317C478.117 79.6063 479.989 78.6277 482.541 77.096C485.094 75.5643 487.902 73.6922 490.966 71.4797C494.029 69.1822 496.88 66.6718 499.518 63.9488C499.858 63.6084 500.199 63.4382 500.539 63.4382C500.964 63.4382 501.177 63.651 501.177 64.0765C501.177 64.4168 501.007 64.7572 500.667 65.0976C498.369 67.3101 495.816 69.6927 493.008 72.2456C490.2 74.7133 487.137 77.0534 483.818 79.2659C480.584 81.4784 477.223 83.3079 473.734 84.7545C470.245 86.116 466.671 86.7968 463.012 86.7968Z" fill="white"/>
</svg>
