<svg width="48" height="48" viewBox="0 0 48 48" fill="none" xmlns="http://www.w3.org/2000/svg">
<g clip-path="url(#clip0_1_9)">
<path d="M24 0C10.7668 0 0 10.7668 0 24C0 37.2332 10.7668 48 24 48C37.2332 48 48 37.2332 48 24C48 10.7668 37.2332 0 24 0ZM17.845 7.38462H30.1514C35.9207 7.38462 40.6154 12.0776 40.6154 17.845V30.1514C40.6154 35.9207 35.9224 40.6154 30.155 40.6154H17.8486C12.0793 40.6154 7.38462 35.9224 7.38462 30.155V17.8486C7.38462 12.0793 12.0776 7.38462 17.845 7.38462ZM17.845 11.0769C14.1139 11.0769 11.0769 14.1156 11.0769 17.8486V30.155C11.0769 33.8861 14.1156 36.9231 17.8486 36.9231H30.155C33.8861 36.9231 36.9231 33.8844 36.9231 30.1514V17.845C36.9231 14.1139 33.8844 11.0769 30.1514 11.0769H17.845ZM32.6178 14.1526C33.2972 14.1526 33.8474 14.7028 33.8474 15.3822C33.8474 16.0616 33.2972 16.6154 32.6178 16.6154C31.9384 16.6154 31.3846 16.0616 31.3846 15.3822C31.3846 14.7028 31.9384 14.1526 32.6178 14.1526ZM24 14.7692C29.0898 14.7692 33.2308 18.9102 33.2308 24C33.2308 29.0898 29.0898 33.2308 24 33.2308C18.9102 33.2308 14.7692 29.0898 14.7692 24C14.7692 18.9102 18.9102 14.7692 24 14.7692ZM24 18.4615C22.5311 18.4615 21.1224 19.0451 20.0837 20.0837C19.0451 21.1224 18.4615 22.5311 18.4615 24C18.4615 25.4689 19.0451 26.8776 20.0837 27.9163C21.1224 28.9549 22.5311 29.5385 24 29.5385C25.4689 29.5385 26.8776 28.9549 27.9163 27.9163C28.9549 26.8776 29.5385 25.4689 29.5385 24C29.5385 22.5311 28.9549 21.1224 27.9163 20.0837C26.8776 19.0451 25.4689 18.4615 24 18.4615Z" fill="#E775FA"/>
</g>
<defs>
<clipPath id="clip0_1_9">
<rect width="48" height="48" fill="white"/>
</clipPath>
</defs>
</svg>
