<svg width="145" height="19" viewBox="0 0 145 19" fill="none" xmlns="http://www.w3.org/2000/svg">
<path d="M15.0057 0.545452V18H12.5852L3.71307 5.19886H3.55114V18H0.917614V0.545452H3.35511L12.2358 13.3636H12.3977V0.545452H15.0057ZM23.4808 0.545452V18H20.8473V0.545452H23.4808ZM28.4553 2.8125V0.545452H41.9638V2.8125H36.5178V18H33.8928V2.8125H28.4553ZM49.5824 0.545452V18H46.9489V0.545452H49.5824ZM69.5057 0.545452V18H67.0852L58.2131 5.19886H58.0511V18H55.4176V0.545452H57.8551L66.7358 13.3636H66.8977V0.545452H69.5057ZM93.2188 5.13068C93.1278 4.32386 92.7528 3.69886 92.0938 3.25568C91.4347 2.80682 90.6051 2.58239 89.6051 2.58239C88.8892 2.58239 88.2699 2.69602 87.7472 2.92329C87.2244 3.14489 86.8182 3.4517 86.5284 3.84375C86.2443 4.23011 86.1023 4.67045 86.1023 5.16477C86.1023 5.57955 86.1989 5.9375 86.392 6.23864C86.5909 6.53977 86.8494 6.79261 87.1676 6.99716C87.4915 7.19602 87.8381 7.36364 88.2074 7.5C88.5767 7.63068 88.9318 7.73864 89.2727 7.82386L90.9773 8.26705C91.5341 8.40341 92.1051 8.58807 92.6903 8.82102C93.2756 9.05398 93.8182 9.3608 94.3182 9.74148C94.8182 10.1222 95.2216 10.5938 95.5284 11.1562C95.8409 11.7188 95.9972 12.392 95.9972 13.1761C95.9972 14.1648 95.7415 15.0426 95.2301 15.8097C94.7244 16.5767 93.9886 17.1818 93.0227 17.625C92.0625 18.0682 90.9006 18.2898 89.5369 18.2898C88.2301 18.2898 87.0994 18.0824 86.1449 17.6676C85.1903 17.2528 84.4432 16.6648 83.9034 15.9034C83.3636 15.1364 83.0653 14.2273 83.0085 13.1761H85.6506C85.7017 13.8068 85.9063 14.3324 86.2642 14.7528C86.6278 15.1676 87.0909 15.4773 87.6534 15.6818C88.2216 15.8807 88.8438 15.9801 89.5199 15.9801C90.2642 15.9801 90.9261 15.8636 91.5057 15.6307C92.0909 15.392 92.5511 15.0625 92.8864 14.642C93.2216 14.2159 93.3892 13.7187 93.3892 13.1506C93.3892 12.6335 93.2415 12.2102 92.946 11.8807C92.6563 11.5511 92.2614 11.2784 91.7614 11.0625C91.267 10.8466 90.7074 10.6562 90.0824 10.4915L88.0199 9.92898C86.6222 9.5483 85.5142 8.98864 84.696 8.25C83.8835 7.51136 83.4773 6.53409 83.4773 5.31818C83.4773 4.3125 83.75 3.43466 84.2955 2.68466C84.8409 1.93466 85.5795 1.35227 86.5114 0.937498C87.4432 0.517043 88.4943 0.306816 89.6648 0.306816C90.8466 0.306816 91.8892 0.514202 92.7926 0.928975C93.7017 1.34375 94.4176 1.91477 94.9403 2.64204C95.4631 3.36364 95.7358 4.19318 95.7585 5.13068H93.2188ZM116.306 9.27273C116.306 11.1364 115.965 12.7386 115.283 14.0795C114.602 15.4148 113.667 16.4432 112.479 17.1648C111.298 17.8807 109.954 18.2386 108.448 18.2386C106.937 18.2386 105.587 17.8807 104.4 17.1648C103.218 16.4432 102.286 15.4119 101.604 14.071C100.923 12.7301 100.582 11.1307 100.582 9.27273C100.582 7.40909 100.923 5.80966 101.604 4.47443C102.286 3.13352 103.218 2.10511 104.4 1.3892C105.587 0.667611 106.937 0.306816 108.448 0.306816C109.954 0.306816 111.298 0.667611 112.479 1.3892C113.667 2.10511 114.602 3.13352 115.283 4.47443C115.965 5.80966 116.306 7.40909 116.306 9.27273ZM113.698 9.27273C113.698 7.85227 113.468 6.65625 113.008 5.68466C112.553 4.70739 111.928 3.96875 111.133 3.46875C110.343 2.96307 109.448 2.71023 108.448 2.71023C107.442 2.71023 106.545 2.96307 105.755 3.46875C104.965 3.96875 104.34 4.70739 103.88 5.68466C103.425 6.65625 103.198 7.85227 103.198 9.27273C103.198 10.6932 103.425 11.892 103.88 12.8693C104.34 13.8409 104.965 14.5795 105.755 15.0852C106.545 15.5852 107.442 15.8352 108.448 15.8352C109.448 15.8352 110.343 15.5852 111.133 15.0852C111.928 14.5795 112.553 13.8409 113.008 12.8693C113.468 11.892 113.698 10.6932 113.698 9.27273ZM135.678 0.545452V18H133.257L124.385 5.19886H124.223V18H121.589V0.545452H124.027L132.908 13.3636H133.07V0.545452H135.678ZM144.153 0.545452V18H141.519V0.545452H144.153Z" fill="white"/>
</svg>
