<svg width="48" height="48" viewBox="0 0 48 48" fill="none" xmlns="http://www.w3.org/2000/svg">
<path d="M23.9999 0C10.7454 0 0 10.7451 0 23.9996C0 37.2546 10.7454 47.9989 23.9999 47.9989C37.2558 47.9989 48 37.2546 48 23.9996C48 10.746 37.2558 0.00114635 23.9996 0.00114635L23.9999 0ZM35.006 34.6143C34.5762 35.3193 33.6533 35.5428 32.9483 35.1101C27.3134 31.6681 20.2197 30.8886 11.8657 32.7973C11.0606 32.9807 10.2582 32.4763 10.0748 31.671C9.89049 30.8657 10.3929 30.0632 11.1999 29.8798C20.3421 27.7903 28.1841 28.6905 34.5102 32.5566C35.2152 32.9893 35.4388 33.9093 35.006 34.6143ZM37.9436 28.0786C37.4019 28.9599 36.2498 29.2379 35.37 28.6962C28.9189 24.7301 19.0851 23.5817 11.4547 25.8979C10.4651 26.1969 9.41991 25.6391 9.11956 24.6513C8.82151 23.6617 9.3795 22.6185 10.3674 22.3176C19.0834 19.6729 29.9191 20.954 37.3274 25.5065C38.2072 26.0481 38.4852 27.1999 37.9436 28.0786ZM38.1958 21.2738C30.4607 16.6795 17.6989 16.2571 10.3138 18.4985C9.12787 18.8582 7.87376 18.1887 7.51437 17.0028C7.15499 15.8163 7.82389 14.563 9.01066 14.2025C17.4883 11.6289 31.5813 12.1262 40.4868 17.4129C41.5558 18.046 41.9054 19.4236 41.272 20.4888C40.6415 21.5555 39.2602 21.9072 38.1969 21.2738H38.1958Z" fill="#87FA75"/>
</svg>
