<svg width="48" height="48" viewBox="0 0 48 48" fill="none" xmlns="http://www.w3.org/2000/svg">
<path fill-rule="evenodd" clip-rule="evenodd" d="M48 24C48 37.2548 37.2548 48 24 48C10.7452 48 0 37.2548 0 24C0 10.7452 10.7452 0 24 0C37.2548 0 48 10.7452 48 24ZM24.07 7.9C28.33 7.90188 32.33 9.56 35.34 12.57C38.35 15.58 40.0019 19.58 40 23.84C39.9966 32.1627 32.85 39.77 24.0566 39.77C21.39 39.77 18.77 39.1 16.45 37.83L8 40.05L10.26 31.79C8.87 29.38 8.1285 26.64 8.13 23.83C8.14 15.04 15.29 7.9 24.07 7.9ZM24.0581 36.2902H24.063C30.9056 36.2902 36.4755 30.7208 36.4778 23.8748C36.4785 20.5571 35.1885 17.4382 32.8444 15.0915C30.4999 12.7444 27.3833 11.451 24.0668 11.4503C17.2185 11.4503 11.6486 17.0194 11.6464 23.8643C11.6449 26.211 12.3015 28.4951 13.5446 30.4714L13.8398 30.9424L12.5861 35.5234L17.2849 34.2907L17.7383 34.56C19.6448 35.691 21.8295 36.2895 24.0581 36.2902ZM28.3223 25.7775C28.6646 25.9031 30.4995 26.805 30.873 26.9921C30.9464 27.029 31.015 27.0622 31.0786 27.093C31.3378 27.2185 31.5133 27.3034 31.5889 27.429C31.683 27.585 31.683 28.332 31.3721 29.2035C31.0605 30.0754 29.5695 30.8711 28.8525 30.978C28.209 31.074 27.3953 31.1149 26.5013 30.8302C25.9594 30.6577 25.2638 30.4279 24.3735 30.0439C20.8783 28.5347 18.5152 25.1482 18.0646 24.5026C18.0325 24.4566 18.0102 24.4245 17.9978 24.408L17.9962 24.406C17.8038 24.1498 16.4738 22.3792 16.4738 20.5474C16.4738 18.8284 17.3175 17.9275 17.7062 17.5126C17.7331 17.4839 17.7578 17.4575 17.7799 17.4334C18.1219 17.0595 18.5265 16.9661 18.7751 16.9661C19.0238 16.9661 19.2724 16.9691 19.4906 16.9796C19.5174 16.9809 19.5452 16.9808 19.5739 16.9806C19.7912 16.9791 20.0623 16.9773 20.3303 17.6201C20.4291 17.858 20.5721 18.2064 20.7242 18.5768C21.0498 19.37 21.4168 20.2642 21.4808 20.3918C21.5745 20.5785 21.6364 20.7964 21.5119 21.0454C21.4931 21.0829 21.4757 21.1184 21.4591 21.1522C21.3657 21.3424 21.297 21.4826 21.1388 21.6679C21.0779 21.7392 21.015 21.8158 20.952 21.8925C20.8221 22.0507 20.692 22.2093 20.5789 22.3219C20.3918 22.5083 20.1975 22.7096 20.415 23.0831C20.6325 23.4566 21.3818 24.6799 22.4918 25.6687C23.6832 26.7325 24.7191 27.1821 25.2448 27.4102C25.3476 27.4548 25.431 27.491 25.4921 27.5216C25.8656 27.7087 26.0831 27.6772 26.3006 27.4282C26.5189 27.1793 27.234 26.3381 27.483 25.9646C27.732 25.5911 27.9799 25.653 28.3223 25.7775Z" fill="#7EEE6D"/>
</svg>
